<mxfile host="app.diagrams.net" agent="Mozilla/5.0 (Macintosh; Intel Mac OS X 10_15_7) AppleWebKit/537.36 (KHTML, like Gecko) Chrome/136.0.0.0 Safari/537.36" version="27.0.8">
  <diagram name="第 1 页" id="0tHlJHH_m6w2Y_UGITcI">
    <mxGraphModel dx="1113" dy="618" grid="1" gridSize="10" guides="1" tooltips="1" connect="1" arrows="1" fold="1" page="1" pageScale="1" pageWidth="827" pageHeight="1169" math="0" shadow="0">
      <root>
        <mxCell id="0" />
        <mxCell id="1" parent="0" />
        <mxCell id="JQ-V9tFO-jVHV44EhA5r-72" value="" style="rounded=0;whiteSpace=wrap;html=1;dashed=1;" vertex="1" parent="1">
          <mxGeometry x="870" y="170" width="170" height="710" as="geometry" />
        </mxCell>
        <mxCell id="JQ-V9tFO-jVHV44EhA5r-69" value="" style="rounded=0;whiteSpace=wrap;html=1;dashed=1;" vertex="1" parent="1">
          <mxGeometry x="470" y="170" width="350" height="710" as="geometry" />
        </mxCell>
        <mxCell id="JQ-V9tFO-jVHV44EhA5r-68" value="" style="rounded=0;whiteSpace=wrap;html=1;dashed=1;" vertex="1" parent="1">
          <mxGeometry x="240" y="170" width="170" height="720" as="geometry" />
        </mxCell>
        <mxCell id="JQ-V9tFO-jVHV44EhA5r-24" style="edgeStyle=orthogonalEdgeStyle;rounded=0;orthogonalLoop=1;jettySize=auto;html=1;" edge="1" parent="1" source="JQ-V9tFO-jVHV44EhA5r-18" target="JQ-V9tFO-jVHV44EhA5r-23">
          <mxGeometry relative="1" as="geometry" />
        </mxCell>
        <mxCell id="JQ-V9tFO-jVHV44EhA5r-26" value="同步标记&lt;div&gt;医生/护士/无需&lt;/div&gt;" style="edgeLabel;html=1;align=center;verticalAlign=middle;resizable=0;points=[];" vertex="1" connectable="0" parent="JQ-V9tFO-jVHV44EhA5r-24">
          <mxGeometry x="-0.103" y="2" relative="1" as="geometry">
            <mxPoint as="offset" />
          </mxGeometry>
        </mxCell>
        <mxCell id="JQ-V9tFO-jVHV44EhA5r-18" value="出院&lt;div&gt;护士标记&lt;/div&gt;" style="rounded=1;whiteSpace=wrap;html=1;" vertex="1" parent="1">
          <mxGeometry x="270" y="330" width="120" height="60" as="geometry" />
        </mxCell>
        <mxCell id="JQ-V9tFO-jVHV44EhA5r-67" style="edgeStyle=orthogonalEdgeStyle;rounded=0;orthogonalLoop=1;jettySize=auto;html=1;" edge="1" parent="1" source="JQ-V9tFO-jVHV44EhA5r-22" target="JQ-V9tFO-jVHV44EhA5r-18">
          <mxGeometry relative="1" as="geometry" />
        </mxCell>
        <mxCell id="JQ-V9tFO-jVHV44EhA5r-22" value="HIS" style="rounded=0;whiteSpace=wrap;html=1;" vertex="1" parent="1">
          <mxGeometry x="270" y="200" width="120" height="60" as="geometry" />
        </mxCell>
        <mxCell id="JQ-V9tFO-jVHV44EhA5r-23" value="数据库" style="shape=cylinder3;whiteSpace=wrap;html=1;boundedLbl=1;backgroundOutline=1;size=15;" vertex="1" parent="1">
          <mxGeometry x="611.25" y="325" width="62.5" height="70" as="geometry" />
        </mxCell>
        <mxCell id="JQ-V9tFO-jVHV44EhA5r-60" style="edgeStyle=orthogonalEdgeStyle;rounded=0;orthogonalLoop=1;jettySize=auto;html=1;" edge="1" parent="1" source="JQ-V9tFO-jVHV44EhA5r-25" target="JQ-V9tFO-jVHV44EhA5r-23">
          <mxGeometry relative="1" as="geometry" />
        </mxCell>
        <mxCell id="JQ-V9tFO-jVHV44EhA5r-25" value="随访系统" style="rounded=0;whiteSpace=wrap;html=1;" vertex="1" parent="1">
          <mxGeometry x="582.5" y="200" width="120" height="60" as="geometry" />
        </mxCell>
        <mxCell id="JQ-V9tFO-jVHV44EhA5r-30" style="edgeStyle=orthogonalEdgeStyle;rounded=0;orthogonalLoop=1;jettySize=auto;html=1;entryX=0.5;entryY=0;entryDx=0;entryDy=0;" edge="1" parent="1" source="JQ-V9tFO-jVHV44EhA5r-27" target="JQ-V9tFO-jVHV44EhA5r-29">
          <mxGeometry relative="1" as="geometry" />
        </mxCell>
        <mxCell id="JQ-V9tFO-jVHV44EhA5r-27" value="计划执行" style="rounded=1;whiteSpace=wrap;html=1;" vertex="1" parent="1">
          <mxGeometry x="607.5" y="440" width="70" height="40" as="geometry" />
        </mxCell>
        <mxCell id="JQ-V9tFO-jVHV44EhA5r-44" style="edgeStyle=orthogonalEdgeStyle;rounded=0;orthogonalLoop=1;jettySize=auto;html=1;entryX=0.5;entryY=0;entryDx=0;entryDy=0;" edge="1" parent="1" source="JQ-V9tFO-jVHV44EhA5r-28" target="JQ-V9tFO-jVHV44EhA5r-42">
          <mxGeometry relative="1" as="geometry" />
        </mxCell>
        <mxCell id="JQ-V9tFO-jVHV44EhA5r-28" value="医生计划" style="rounded=1;whiteSpace=wrap;html=1;arcSize=40;" vertex="1" parent="1">
          <mxGeometry x="500" y="600" width="95" height="40" as="geometry" />
        </mxCell>
        <mxCell id="JQ-V9tFO-jVHV44EhA5r-33" style="edgeStyle=orthogonalEdgeStyle;rounded=0;orthogonalLoop=1;jettySize=auto;html=1;" edge="1" parent="1" source="JQ-V9tFO-jVHV44EhA5r-29" target="JQ-V9tFO-jVHV44EhA5r-28">
          <mxGeometry relative="1" as="geometry" />
        </mxCell>
        <mxCell id="JQ-V9tFO-jVHV44EhA5r-37" value="医生" style="edgeLabel;html=1;align=center;verticalAlign=middle;resizable=0;points=[];" vertex="1" connectable="0" parent="JQ-V9tFO-jVHV44EhA5r-33">
          <mxGeometry x="0.2904" y="-3" relative="1" as="geometry">
            <mxPoint as="offset" />
          </mxGeometry>
        </mxCell>
        <mxCell id="JQ-V9tFO-jVHV44EhA5r-29" value="判断&lt;div&gt;标记&lt;/div&gt;" style="rhombus;whiteSpace=wrap;html=1;" vertex="1" parent="1">
          <mxGeometry x="611.25" y="520" width="62.5" height="60" as="geometry" />
        </mxCell>
        <mxCell id="JQ-V9tFO-jVHV44EhA5r-43" style="edgeStyle=orthogonalEdgeStyle;rounded=0;orthogonalLoop=1;jettySize=auto;html=1;" edge="1" parent="1" source="JQ-V9tFO-jVHV44EhA5r-31" target="JQ-V9tFO-jVHV44EhA5r-42">
          <mxGeometry relative="1" as="geometry" />
        </mxCell>
        <mxCell id="JQ-V9tFO-jVHV44EhA5r-31" value="护士计划" style="rounded=1;whiteSpace=wrap;html=1;" vertex="1" parent="1">
          <mxGeometry x="687.5" y="600" width="95" height="40" as="geometry" />
        </mxCell>
        <mxCell id="JQ-V9tFO-jVHV44EhA5r-34" style="edgeStyle=orthogonalEdgeStyle;rounded=0;orthogonalLoop=1;jettySize=auto;html=1;entryX=0.5;entryY=0;entryDx=0;entryDy=0;" edge="1" parent="1" source="JQ-V9tFO-jVHV44EhA5r-29" target="JQ-V9tFO-jVHV44EhA5r-31">
          <mxGeometry relative="1" as="geometry" />
        </mxCell>
        <mxCell id="JQ-V9tFO-jVHV44EhA5r-58" value="&lt;div&gt;&lt;span style=&quot;background-color: light-dark(#ffffff, var(--ge-dark-color, #121212)); color: light-dark(rgb(0, 0, 0), rgb(255, 255, 255));&quot;&gt;护士/无需/未标记/个案师&lt;/span&gt;&lt;/div&gt;" style="edgeLabel;html=1;align=center;verticalAlign=middle;resizable=0;points=[];" vertex="1" connectable="0" parent="JQ-V9tFO-jVHV44EhA5r-34">
          <mxGeometry x="0.4084" y="-1" relative="1" as="geometry">
            <mxPoint as="offset" />
          </mxGeometry>
        </mxCell>
        <mxCell id="JQ-V9tFO-jVHV44EhA5r-42" value="随访任务" style="rounded=1;whiteSpace=wrap;html=1;" vertex="1" parent="1">
          <mxGeometry x="595" y="725" width="95" height="40" as="geometry" />
        </mxCell>
        <mxCell id="JQ-V9tFO-jVHV44EhA5r-47" style="edgeStyle=orthogonalEdgeStyle;rounded=0;orthogonalLoop=1;jettySize=auto;html=1;entryX=0;entryY=0.5;entryDx=0;entryDy=0;" edge="1" parent="1" source="JQ-V9tFO-jVHV44EhA5r-45" target="JQ-V9tFO-jVHV44EhA5r-42">
          <mxGeometry relative="1" as="geometry" />
        </mxCell>
        <mxCell id="JQ-V9tFO-jVHV44EhA5r-48" value="获取医生的&lt;div&gt;出院7日内未随访列表&lt;/div&gt;" style="edgeLabel;html=1;align=center;verticalAlign=middle;resizable=0;points=[];" vertex="1" connectable="0" parent="JQ-V9tFO-jVHV44EhA5r-47">
          <mxGeometry x="-0.1698" y="-2" relative="1" as="geometry">
            <mxPoint as="offset" />
          </mxGeometry>
        </mxCell>
        <mxCell id="JQ-V9tFO-jVHV44EhA5r-45" value="消息提醒" style="rounded=1;whiteSpace=wrap;html=1;" vertex="1" parent="1">
          <mxGeometry x="270" y="725" width="120" height="40" as="geometry" />
        </mxCell>
        <mxCell id="JQ-V9tFO-jVHV44EhA5r-50" style="edgeStyle=orthogonalEdgeStyle;rounded=0;orthogonalLoop=1;jettySize=auto;html=1;entryX=0.5;entryY=1;entryDx=0;entryDy=0;" edge="1" parent="1" source="JQ-V9tFO-jVHV44EhA5r-49" target="JQ-V9tFO-jVHV44EhA5r-42">
          <mxGeometry relative="1" as="geometry" />
        </mxCell>
        <mxCell id="JQ-V9tFO-jVHV44EhA5r-51" value="免密登陆进入" style="edgeLabel;html=1;align=center;verticalAlign=middle;resizable=0;points=[];" vertex="1" connectable="0" parent="JQ-V9tFO-jVHV44EhA5r-50">
          <mxGeometry x="-0.3042" y="3" relative="1" as="geometry">
            <mxPoint as="offset" />
          </mxGeometry>
        </mxCell>
        <mxCell id="JQ-V9tFO-jVHV44EhA5r-49" value="随访快捷入口" style="rounded=1;whiteSpace=wrap;html=1;" vertex="1" parent="1">
          <mxGeometry x="270" y="810" width="120" height="40" as="geometry" />
        </mxCell>
        <mxCell id="JQ-V9tFO-jVHV44EhA5r-52" value="个案系统" style="rounded=0;whiteSpace=wrap;html=1;" vertex="1" parent="1">
          <mxGeometry x="895" y="200" width="120" height="60" as="geometry" />
        </mxCell>
        <mxCell id="JQ-V9tFO-jVHV44EhA5r-54" value="收案" style="rounded=1;whiteSpace=wrap;html=1;" vertex="1" parent="1">
          <mxGeometry x="905" y="335" width="100" height="50" as="geometry" />
        </mxCell>
        <mxCell id="JQ-V9tFO-jVHV44EhA5r-55" style="edgeStyle=orthogonalEdgeStyle;rounded=0;orthogonalLoop=1;jettySize=auto;html=1;entryX=1;entryY=0.5;entryDx=0;entryDy=0;entryPerimeter=0;" edge="1" parent="1" source="JQ-V9tFO-jVHV44EhA5r-54" target="JQ-V9tFO-jVHV44EhA5r-23">
          <mxGeometry relative="1" as="geometry" />
        </mxCell>
        <mxCell id="JQ-V9tFO-jVHV44EhA5r-56" value="同步标记&lt;div&gt;个案师&lt;/div&gt;" style="edgeLabel;html=1;align=center;verticalAlign=middle;resizable=0;points=[];" vertex="1" connectable="0" parent="JQ-V9tFO-jVHV44EhA5r-55">
          <mxGeometry x="-0.09" y="2" relative="1" as="geometry">
            <mxPoint as="offset" />
          </mxGeometry>
        </mxCell>
        <mxCell id="JQ-V9tFO-jVHV44EhA5r-57" style="edgeStyle=orthogonalEdgeStyle;rounded=0;orthogonalLoop=1;jettySize=auto;html=1;entryX=0.5;entryY=1;entryDx=0;entryDy=0;entryPerimeter=0;" edge="1" parent="1" source="JQ-V9tFO-jVHV44EhA5r-27" target="JQ-V9tFO-jVHV44EhA5r-23">
          <mxGeometry relative="1" as="geometry" />
        </mxCell>
        <mxCell id="JQ-V9tFO-jVHV44EhA5r-73" value="查询" style="edgeLabel;html=1;align=center;verticalAlign=middle;resizable=0;points=[];" vertex="1" connectable="0" parent="JQ-V9tFO-jVHV44EhA5r-57">
          <mxGeometry x="0.166" y="-1" relative="1" as="geometry">
            <mxPoint as="offset" />
          </mxGeometry>
        </mxCell>
        <mxCell id="JQ-V9tFO-jVHV44EhA5r-62" style="edgeStyle=orthogonalEdgeStyle;rounded=0;orthogonalLoop=1;jettySize=auto;html=1;entryX=1;entryY=0.5;entryDx=0;entryDy=0;" edge="1" parent="1" source="JQ-V9tFO-jVHV44EhA5r-61" target="JQ-V9tFO-jVHV44EhA5r-42">
          <mxGeometry relative="1" as="geometry" />
        </mxCell>
        <mxCell id="JQ-V9tFO-jVHV44EhA5r-63" value="分配账户进入" style="edgeLabel;html=1;align=center;verticalAlign=middle;resizable=0;points=[];" vertex="1" connectable="0" parent="JQ-V9tFO-jVHV44EhA5r-62">
          <mxGeometry x="-0.0118" y="1" relative="1" as="geometry">
            <mxPoint as="offset" />
          </mxGeometry>
        </mxCell>
        <mxCell id="JQ-V9tFO-jVHV44EhA5r-61" value="随访" style="rounded=1;whiteSpace=wrap;html=1;" vertex="1" parent="1">
          <mxGeometry x="905" y="720" width="100" height="50" as="geometry" />
        </mxCell>
      </root>
    </mxGraphModel>
  </diagram>
</mxfile>
